<?xml version="1.0" encoding="iso-8859-1"?>
<!-- Generator: Adobe Illustrator 16.0.0, SVG Export Plug-In . SVG Version: 6.00 Build 0)  -->
<!DOCTYPE svg PUBLIC "-//W3C//DTD SVG 1.1//EN" "http://www.w3.org/Graphics/SVG/1.1/DTD/svg11.dtd">
<svg version="1.1" xmlns="http://www.w3.org/2000/svg" xmlns:xlink="http://www.w3.org/1999/xlink" x="0px" y="0px" width="16px"
	 height="16px" viewBox="0 0 16 16" style="enable-background:new 0 0 16 16;" xml:space="preserve">
<g id="_x33_4-web_-_link_url" style="enable-background:new    ;">
	<path d="M6.563,13.068l-1.09,1.09L5.11,14.521c-0.601,0.601-1.579,0.601-2.18,0l-1.453-1.453c-0.601-0.601-0.601-1.578,0-2.18
		L6.2,6.166c0.601-0.602,1.578-0.602,2.18,0l0.726,0.727l0.363,0.363c0.1,0.101,0.232,0.15,0.363,0.15s0.264-0.05,0.363-0.15
		c0.201-0.2,0.201-0.525,0-0.727L9.832,6.166L9.105,5.439c-1.001-1.002-2.631-1.002-3.632,0L0.75,10.162
		c-1.001,1.002-1.001,2.632,0,3.633l1.453,1.453c1.001,1.002,2.631,1.001,3.633,0L6.2,14.885l1.089-1.09
		c0.201-0.201,0.201-0.526,0-0.727C7.089,12.868,6.764,12.868,6.563,13.068z M15.223,2.112l-1.336-1.337
		c-1.016-1.017-2.711-1.038-3.701-0.049L9.832,1.08l-1.09,1.091c-0.2,0.2-0.2,0.525,0,0.726c0.102,0.101,0.232,0.151,0.364,0.151
		c0.131,0,0.264-0.051,0.363-0.151l1.09-1.09l0.354-0.354c0.586-0.585,1.637-0.563,2.248,0.049l1.338,1.337
		c0.611,0.612,0.633,1.662,0.047,2.247l-3.27,3.27L10,9.631c-0.623,0.623-1.836,0.68-2.405,0.11L6.983,9.13
		C6.964,9.111,6.951,9.085,6.934,9.064L6.926,9.072L6.563,8.71c-0.201-0.201-0.526-0.201-0.727,0c-0.201,0.2-0.201,0.525,0,0.727
		l0.42,0.42l0.612,0.611l0.057,0.059c0.029,0.027,0.064,0.043,0.097,0.064c0.951,0.791,2.512,0.751,3.518-0.082l0.018,0.018
		c0.035-0.037,0.066-0.076,0.1-0.114c0.021-0.02,0.047-0.034,0.068-0.055l4.545-4.545C16.262,4.822,16.24,3.129,15.223,2.112z"/>
</g>
<g id="Layer_1">
</g>
</svg>
