<?xml version="1.0" encoding="iso-8859-1"?>
<!-- Generator: Adobe Illustrator 16.0.0, SVG Export Plug-In . SVG Version: 6.00 Build 0)  -->
<!DOCTYPE svg PUBLIC "-//W3C//DTD SVG 1.1//EN" "http://www.w3.org/Graphics/SVG/1.1/DTD/svg11.dtd">
<svg version="1.1" xmlns="http://www.w3.org/2000/svg" xmlns:xlink="http://www.w3.org/1999/xlink" x="0px" y="0px" width="16px"
	 height="16px" viewBox="0 0 16 16" style="enable-background:new 0 0 16 16;" xml:space="preserve">
<g id="_x34_0-web_-_share_network" style="enable-background:new    ;">
	<path d="M13,8.998c-1.15,0-2.139,0.655-2.641,1.605L5.929,8.637C5.973,8.431,6,8.218,6,7.998C6,7.852,5.977,7.712,5.957,7.57
		l4.5-1.998C10.984,6.426,11.922,6.998,13,6.998c1.656,0,3-1.343,3-3c0-1.656-1.344-2.999-3-2.999s-3,1.343-3,2.999
		c0,0.22,0.027,0.432,0.07,0.638L5.641,6.604C5.138,5.653,4.15,4.998,3,4.998c-1.657,0-3,1.344-3,3c0,1.657,1.343,3.001,3,3.001
		c1.078,0,2.015-0.573,2.543-1.427l4.5,1.998C10.023,11.712,10,11.852,10,11.998c0,1.657,1.344,3.001,3,3.001s3-1.344,3-3.001
		C16,10.342,14.656,8.998,13,8.998z M13,1.998c1.104,0,2,0.896,2,2c0,1.105-0.896,2-2,2c-1.105,0-2-0.895-2-2
		C11,2.894,11.895,1.998,13,1.998z M3,9.998c-1.104,0-2-0.895-2-2c0-1.104,0.896-2,2-2s2,0.896,2,2C5,9.104,4.104,9.998,3,9.998z
		 M13,13.998c-1.105,0-2-0.895-2-2c0-1.104,0.895-2,2-2c1.104,0,2,0.896,2,2C15,13.104,14.104,13.998,13,13.998z"/>
</g>
<g id="Layer_1">
</g>
</svg>
